<svg xmlns="http://www.w3.org/2000/svg" viewBox="0 0 171.25 162.49"><defs><style>.cls-1{fill:#2e2d2c;}.cls-2{fill:#19598a;}.cls-3{fill:none;stroke:#19598a;stroke-miterlimit:10;stroke-width:4px;}</style></defs><title>Vodabois_logo_tumma</title><g id="Layer_2" data-name="Layer 2"><g id="Layer_1-2" data-name="Layer 1"><g id="Vodabois_logo_tumma"><path class="cls-1" d="M62.86,87.9Q49.92,63.57,49.92,58.83q0-9.49,1.22-28.37T52.35,2.2q0-2.2-2.66-2.2Q47.6,0,43.32.35T36.95.69q-2.2,0-6.43-.35T24.09,0q-2.78,0-2.78,4.29,0,9.15-.64,27.51T20,59.3q0,2.9,11.88,26.12A57.9,57.9,0,0,0,43.69,79,22.17,22.17,0,0,0,62.86,87.9Z"/><path class="cls-2" d="M128,79c-6.81,4.71-13.18,7.44-18.93,8.47q-8.64,16.28-23.15,41.47h0l0,.08,0-.08h0q-14.32-24.85-22.92-41A22.17,22.17,0,0,1,43.69,79a57.9,57.9,0,0,1-11.78,6.41q4.75,9.29,11.4,21.83,27.21,51.19,27.56,51.88,1.62,3.36,3.24,3.36h23.4q1.62,0,3.24-3.36.35-.69,27.56-51.88Q134.46,95.67,139,86.88A22.2,22.2,0,0,1,128,79Z"/><path class="cls-1" d="M151,31.79q-.64-18.35-.64-27.51,0-4.28-2.78-4.29-2.2,0-6.43.35T134.7.69q-2.08,0-6.37-.35T122,0q-2.66,0-2.66,2.2,0,9.38,1.22,28.26t1.22,28.37q0,4.69-12.7,28.63c5.75-1,12.12-3.75,18.93-8.47a22.2,22.2,0,0,0,11,7.88Q151.6,62.29,151.6,59.3,151.6,50.15,151,31.79Z"/><path class="cls-3" d="M1.59,79C10,90,25.27,91.77,43.72,79c8.46,11,23.68,12.77,42.13,0,8.46,11,23.68,12.77,42.13,0,8.46,11,23.68,12.77,42.13,0"/></g></g></g></svg>